<svg width="18" height="18" viewBox="0 0 18 18" fill="none" xmlns="http://www.w3.org/2000/svg">
<g clip-path="url(#clip0_1_4561)">
<g clip-path="url(#clip1_1_4561)">
<g clip-path="url(#clip2_1_4561)">
<path d="M17.8055 6.17796C17.8055 3.60434 15.7192 1.51807 13.146 1.51807C11.5839 1.51807 10.2055 2.28921 9.35976 3.46787C8.51401 2.28921 7.13559 1.51807 5.57395 1.51807C3.00034 1.51807 0.914062 3.60387 0.914062 6.17796C0.914062 6.54251 0.96034 6.89573 1.03967 7.23621C1.68662 11.2562 6.1562 15.4973 9.35976 16.6618C12.5628 15.4973 17.0329 11.2562 17.6789 7.23668C17.7592 6.89621 17.8055 6.54298 17.8055 6.17796Z" fill="#DD2E44"/>
</g>
</g>
</g>
<defs>
<clipPath id="clip0_1_4561">
<rect width="17" height="17" fill="white" transform="translate(0.859375 0.590332)"/>
</clipPath>
<clipPath id="clip1_1_4561">
<rect width="17" height="17" fill="white" transform="translate(0.859375 0.590332)"/>
</clipPath>
<clipPath id="clip2_1_4561">
<rect width="17" height="17" fill="white" transform="translate(0.859375 0.590332)"/>
</clipPath>
</defs>
</svg>
