<svg width="43" height="41" viewBox="0 0 43 41" fill="none" xmlns="http://www.w3.org/2000/svg">
<path d="M12.4597 7.50997C13.2597 6.6833 14.2464 6.26997 15.4197 6.26997C16.5931 6.26997 17.5797 6.6833 18.3797 7.50997L31.7797 20.87L18.3797 34.23C17.5531 35.0566 16.5664 35.47 15.4197 35.47C14.2731 35.47 13.2864 35.0566 12.4597 34.23C11.6331 33.4033 11.2197 32.4166 11.2197 31.27C11.2197 30.1233 11.6331 29.1366 12.4597 28.31L19.9797 20.87L12.4597 13.43C11.6331 12.5766 11.2197 11.59 11.2197 10.47C11.2197 9.34997 11.6331 8.3633 12.4597 7.50997Z" fill="white"/>
</svg>
