<svg width="43" height="41" viewBox="0 0 43 41" fill="none" xmlns="http://www.w3.org/2000/svg">
<path d="M30.4802 7.50997C31.3336 8.33664 31.7602 9.3233 31.7602 10.47C31.7602 11.6166 31.3336 12.6033 30.4802 13.43L23.0402 20.87L30.4802 28.31C31.3336 29.1366 31.7602 30.1233 31.7602 31.27C31.7602 32.4166 31.3336 33.4033 30.4802 34.23C29.6269 35.0566 28.6536 35.47 27.5602 35.47C26.4669 35.47 25.4802 35.0566 24.6002 34.23L11.2402 20.87L24.6002 7.50997C25.4002 6.6833 26.3869 6.26997 27.5602 6.26997C28.7336 6.26997 29.7069 6.6833 30.4802 7.50997Z" fill="white"/>
</svg>
