<svg width="15" height="15" viewBox="0 0 15 15" fill="none" xmlns="http://www.w3.org/2000/svg">
<path d="M6.52002 14.0125C2.54703 8.25288 1.80957 7.66176 1.80957 5.545C1.80957 2.64549 4.16007 0.294998 7.05957 0.294998C9.95907 0.294998 12.3096 2.64549 12.3096 5.545C12.3096 7.66176 11.5721 8.25288 7.59912 14.0125C7.33839 14.3892 6.78072 14.3891 6.52002 14.0125ZM7.05957 7.7325C8.2677 7.7325 9.24707 6.75313 9.24707 5.545C9.24707 4.33687 8.2677 3.3575 7.05957 3.3575C5.85144 3.3575 4.87207 4.33687 4.87207 5.545C4.87207 6.75313 5.85144 7.7325 7.05957 7.7325Z" fill="#FF9021"/>
</svg>
