<svg width="20" height="21" viewBox="0 0 20 21" fill="none" xmlns="http://www.w3.org/2000/svg">
<path d="M2.41016 7.37695L6.375 18.2363C3.60156 16.8926 1.69141 14.0488 1.69141 10.7598C1.69141 9.55273 1.94922 8.41211 2.41016 7.37695ZM15.6094 10.3418C15.6094 9.31445 15.2422 8.60352 14.9258 8.04883C14.5039 7.36523 14.1094 6.7832 14.1094 6.09961C14.1094 5.33398 14.6875 4.62305 15.5039 4.62305C15.5391 4.62305 15.5742 4.62695 15.6133 4.63086C14.1328 3.27539 12.1641 2.44727 10 2.44727C7.09766 2.44727 4.54297 3.93555 3.05469 6.19336C3.25 6.20117 3.43359 6.20508 3.58984 6.20508C4.45703 6.20508 5.80469 6.09961 5.80469 6.09961C6.25391 6.07227 6.30469 6.73242 5.85938 6.7832C5.85938 6.7832 5.41016 6.83398 4.91016 6.86133L7.9375 15.8613L9.75781 10.4082L8.46484 6.86133C8.01562 6.83398 7.59375 6.7832 7.59375 6.7832C7.14453 6.75586 7.19922 6.07227 7.64453 6.09961C7.64453 6.09961 9.01562 6.20508 9.83203 6.20508C10.6992 6.20508 12.0469 6.09961 12.0469 6.09961C12.4961 6.07227 12.5469 6.73242 12.1016 6.7832C12.1016 6.7832 11.6523 6.83398 11.1523 6.86133L14.1562 15.7949L14.9844 13.0254C15.3359 11.877 15.6094 11.0527 15.6094 10.3418ZM10.1445 11.4863L7.65234 18.7324C8.39844 18.9512 9.18359 19.0723 10 19.0723C10.9687 19.0723 11.8945 18.9043 12.7578 18.5996C12.7344 18.5645 12.7148 18.5254 12.6992 18.4863L10.1445 11.4863ZM17.293 6.77148C17.3281 7.03711 17.3477 7.31836 17.3477 7.62695C17.3477 8.4707 17.1914 9.41602 16.7148 10.6035L14.1758 17.9434C16.6484 16.502 18.3086 13.8262 18.3086 10.7598C18.3086 9.31445 17.9414 7.95508 17.293 6.77148ZM19.6875 10.7598C19.6875 16.1035 15.3398 20.4473 10 20.4473C4.65625 20.4473 0.3125 16.0996 0.3125 10.7598C0.3125 5.41602 4.65625 1.07227 10 1.07227C15.3398 1.07227 19.6875 5.41602 19.6875 10.7598ZM19.2422 10.7598C19.2422 5.66211 15.0937 1.51758 10 1.51758C4.90234 1.51758 0.757812 5.66211 0.757812 10.7598C0.757812 15.8574 4.90625 20.002 10 20.002C15.0977 20.002 19.2422 15.8574 19.2422 10.7598Z" fill="#22232D"/>
</svg>
