<svg width="18" height="19" viewBox="0 0 18 19" fill="none" xmlns="http://www.w3.org/2000/svg">
<path d="M16.3125 2.56006H1.6875C0.755508 2.56006 0 3.31557 0 4.24756V14.3726C0 15.3046 0.755508 16.0601 1.6875 16.0601H16.3125C17.2445 16.0601 18 15.3046 18 14.3726V4.24756C18 3.31557 17.2445 2.56006 16.3125 2.56006ZM16.3125 4.24756V5.68211C15.5242 6.32403 14.2675 7.32218 11.5809 9.4259C10.9889 9.89161 9.81605 11.0105 9 10.9974C8.18409 11.0106 7.01089 9.89144 6.41907 9.4259C3.73289 7.3225 2.47588 6.32413 1.6875 5.68211V4.24756H16.3125ZM1.6875 14.3726V7.84749C2.49307 8.48912 3.63547 9.38951 5.37673 10.753C6.14514 11.3579 7.49081 12.6931 9 12.685C10.5018 12.6931 11.8304 11.3772 12.623 10.7533C14.3642 9.38983 15.5069 8.4892 16.3125 7.84752V14.3726H1.6875Z" fill="#FF9021"/>
</svg>
