<svg width="15" height="15" viewBox="0 0 15 15" fill="none" xmlns="http://www.w3.org/2000/svg">
<path d="M14.1601 10.188L11.0976 8.87546C10.9668 8.81971 10.8214 8.80796 10.6833 8.84199C10.5452 8.87601 10.4219 8.95398 10.332 9.06414L8.9757 10.7212C6.8472 9.71759 5.13424 8.00464 4.13066 5.87613L5.7877 4.51988C5.89808 4.4301 5.9762 4.30681 6.01024 4.16866C6.04429 4.03051 6.0324 3.88504 5.97637 3.75425L4.66387 0.691752C4.60237 0.55077 4.49362 0.435663 4.35635 0.366279C4.21908 0.296895 4.0619 0.277584 3.91191 0.311674L1.06816 0.967924C0.923562 1.00132 0.794547 1.08273 0.702178 1.19889C0.609808 1.31505 0.559537 1.45909 0.55957 1.60749C0.55957 8.62117 6.24434 14.295 13.2471 14.295C13.3955 14.2951 13.5396 14.2448 13.6558 14.1525C13.7721 14.0601 13.8535 13.931 13.8869 13.7864L14.5432 10.9427C14.577 10.7919 14.5573 10.6341 14.4874 10.4964C14.4175 10.3586 14.3017 10.2496 14.1601 10.188Z" fill="#FF9021"/>
</svg>
