<svg width="20" height="21" viewBox="0 0 20 21" fill="none" xmlns="http://www.w3.org/2000/svg">
<path d="M17.3442 2.70898C16.8481 2.25195 14.8402 0.794914 10.3637 0.775382C10.3637 0.775382 5.08634 0.458976 2.51603 2.81835C1.08634 4.24804 0.582437 6.3457 0.527749 8.94335C0.473062 11.541 0.406655 16.4082 5.09806 17.7285H5.10197L5.09806 19.7441C5.09806 19.7441 5.06681 20.5605 5.60587 20.7246C6.25431 20.9277 6.63712 20.3066 7.25822 19.6387C7.59806 19.2715 8.06681 18.7324 8.42228 18.3223C11.6332 18.5918 14.0981 17.9746 14.3793 17.8848C15.0278 17.6738 18.6957 17.2051 19.2895 12.3379C19.9067 7.31444 18.9926 4.14257 17.3442 2.70898ZM17.8871 11.9707C17.3832 16.0332 14.4106 16.291 13.8637 16.4668C13.6293 16.541 11.4613 17.0801 8.73869 16.9043C8.73869 16.9043 6.70744 19.3535 6.07462 19.9902C5.86759 20.1973 5.64103 20.1777 5.64494 19.7676C5.64494 19.498 5.66056 16.4199 5.66056 16.4199C5.65666 16.4199 5.65666 16.4199 5.66056 16.4199C1.684 15.3184 1.91837 11.1738 1.96134 9.00585C2.00431 6.83788 2.41447 5.06054 3.62541 3.86523C5.80119 1.89257 10.2817 2.18554 10.2817 2.18554C14.0668 2.20116 15.8793 3.34179 16.3012 3.7246C17.6957 4.91991 18.4067 7.77929 17.8871 11.9707ZM12.4574 8.81445C12.4731 9.15038 11.9692 9.17382 11.9535 8.83788C11.9106 7.97851 11.5082 7.56054 10.6801 7.51366C10.3442 7.49413 10.3754 6.99023 10.7074 7.00976C11.7973 7.06835 12.4027 7.69335 12.4574 8.81445ZM13.2504 9.25585C13.2895 7.5996 12.2543 6.30273 10.2895 6.1582C9.95744 6.13476 9.99259 5.63085 10.3246 5.65429C12.5902 5.81835 13.7973 7.37695 13.7543 9.26757C13.7504 9.60351 13.2426 9.58788 13.2504 9.25585ZM15.0863 9.77929C15.0903 10.1152 14.5824 10.1191 14.5824 9.7832C14.559 6.5996 12.4379 4.86523 9.86369 4.84569C9.53166 4.84179 9.53166 4.34179 9.86369 4.34179C12.7426 4.36132 15.059 6.3496 15.0863 9.77929ZM14.6449 13.6113V13.6191C14.2231 14.3613 13.434 15.1816 12.6215 14.9199L12.6137 14.9082C11.7895 14.6777 9.84806 13.6777 8.6215 12.7012C7.98869 12.2012 7.41056 11.6113 6.96525 11.0449C6.56291 10.541 6.15666 9.94335 5.76212 9.2246C4.93009 7.7207 4.7465 7.04882 4.7465 7.04882C4.48478 6.23632 5.30119 5.44726 6.04728 5.02538H6.05509C6.41447 4.83788 6.75822 4.90038 6.98869 5.17773C6.98869 5.17773 7.47306 5.75585 7.68009 6.04101C7.87541 6.30663 8.13712 6.73241 8.27384 6.9707C8.51212 7.39648 8.36369 7.83007 8.12931 8.00976L7.66056 8.38476C7.42228 8.57616 7.45353 8.93163 7.45353 8.93163C7.45353 8.93163 8.14884 11.5605 10.7465 12.2246C10.7465 12.2246 11.102 12.2559 11.2934 12.0176L11.6684 11.5488C11.8481 11.3144 12.2817 11.166 12.7074 11.4043C13.2817 11.7285 14.0121 12.2324 14.4965 12.6894C14.7699 12.9121 14.8324 13.2519 14.6449 13.6113Z" fill="#22232D"/>
</svg>
