<svg width="15" height="15" viewBox="0 0 15 15" fill="none" xmlns="http://www.w3.org/2000/svg">
<path d="M7.05957 0.513748C3.31348 0.513748 0.27832 3.5489 0.27832 7.295C0.27832 11.0411 3.31348 14.0762 7.05957 14.0762C10.8057 14.0762 13.8408 11.0411 13.8408 7.295C13.8408 3.5489 10.8057 0.513748 7.05957 0.513748ZM9.58859 9.07234L9.04172 9.75594C9.00583 9.80081 8.96145 9.83817 8.91113 9.86589C8.8608 9.8936 8.8055 9.91114 8.7484 9.91749C8.69129 9.92383 8.6335 9.91887 8.57831 9.90288C8.52312 9.88689 8.47162 9.86019 8.42676 9.8243L6.59473 8.46476C6.46672 8.36228 6.36339 8.23232 6.2924 8.0845C6.2214 7.93669 6.18455 7.7748 6.18457 7.61082V3.3575C6.18457 3.24147 6.23066 3.13019 6.31271 3.04814C6.39476 2.96609 6.50604 2.92 6.62207 2.92H7.49707C7.6131 2.92 7.72438 2.96609 7.80643 3.04814C7.88848 3.13019 7.93457 3.24147 7.93457 3.3575V7.295L9.52051 8.45711C9.5654 8.49302 9.60277 8.53742 9.63049 8.58779C9.6582 8.63815 9.67573 8.69348 9.68205 8.75061C9.68837 8.80775 9.68337 8.86558 9.66734 8.92078C9.6513 8.97598 9.62454 9.02748 9.58859 9.07234Z" fill="#FF9021"/>
</svg>
