<svg width="18" height="19" viewBox="0 0 18 19" fill="none" xmlns="http://www.w3.org/2000/svg">
<path d="M8.3063 17.7067C3.19816 10.3014 2.25 9.54138 2.25 6.81982C2.25 3.09189 5.27207 0.0698242 9 0.0698242C12.7279 0.0698242 15.75 3.09189 15.75 6.81982C15.75 9.54138 14.8018 10.3014 9.6937 17.7067C9.35849 18.1909 8.64148 18.1909 8.3063 17.7067ZM9 9.63232C10.5533 9.63232 11.8125 8.37313 11.8125 6.81982C11.8125 5.26652 10.5533 4.00732 9 4.00732C7.44669 4.00732 6.1875 5.26652 6.1875 6.81982C6.1875 8.37313 7.44669 9.63232 9 9.63232Z" fill="#FF9021"/>
</svg>
