<svg width="18" height="19" viewBox="0 0 18 19" fill="none" xmlns="http://www.w3.org/2000/svg">
<path d="M17.4864 12.7895L13.5489 11.102C13.3807 11.0303 13.1937 11.0152 13.0162 11.059C12.8386 11.1027 12.6801 11.203 12.5645 11.3446L10.8207 13.4751C8.08409 12.1848 5.88171 9.98239 4.59141 7.24574L6.72187 5.50199C6.86379 5.38656 6.96424 5.22804 7.00801 5.05042C7.05178 4.8728 7.03649 4.68576 6.96445 4.51761L5.27695 0.580111C5.19789 0.398848 5.05806 0.250853 4.88157 0.161646C4.70508 0.0724377 4.50299 0.0476084 4.31016 0.091439L0.653906 0.935189C0.467989 0.978121 0.302114 1.0828 0.183352 1.23215C0.0645909 1.38149 -4.28277e-05 1.56668 2.12914e-08 1.75749C2.12914e-08 10.7751 7.30898 18.07 16.3125 18.07C16.5034 18.0701 16.6886 18.0055 16.8381 17.8868C16.9875 17.768 17.0922 17.6021 17.1352 17.4161L17.9789 13.7598C18.0225 13.5661 17.9971 13.3632 17.9072 13.1861C17.8173 13.009 17.6685 12.8687 17.4864 12.7895Z" fill="#FF9021"/>
</svg>
