<svg width="18" height="19" viewBox="0 0 18 19" fill="none" xmlns="http://www.w3.org/2000/svg">
<path d="M9 0.351074C4.18359 0.351074 0.28125 4.25342 0.28125 9.06982C0.28125 13.8862 4.18359 17.7886 9 17.7886C13.8164 17.7886 17.7188 13.8862 17.7188 9.06982C17.7188 4.25342 13.8164 0.351074 9 0.351074ZM12.2516 11.355L11.5485 12.2339C11.5023 12.2916 11.4453 12.3396 11.3806 12.3753C11.3159 12.4109 11.2448 12.4334 11.1713 12.4416C11.0979 12.4498 11.0236 12.4434 10.9527 12.4228C10.8817 12.4023 10.8155 12.3679 10.7578 12.3218L8.40234 10.5738C8.23776 10.442 8.10492 10.2749 8.01364 10.0849C7.92235 9.89485 7.87497 9.68671 7.875 9.47588V4.00732C7.875 3.85814 7.93426 3.71507 8.03975 3.60958C8.14524 3.50409 8.28832 3.44482 8.4375 3.44482H9.5625C9.71168 3.44482 9.85476 3.50409 9.96025 3.60958C10.0657 3.71507 10.125 3.85814 10.125 4.00732V9.06982L12.1641 10.564C12.2218 10.6101 12.2698 10.6672 12.3055 10.732C12.3411 10.7967 12.3636 10.8679 12.3718 10.9413C12.3799 11.0148 12.3735 11.0891 12.3528 11.1601C12.3322 11.2311 12.2978 11.2973 12.2516 11.355Z" fill="#FF9021"/>
</svg>
