<svg width="20" height="21" viewBox="0 0 20 21" fill="none" xmlns="http://www.w3.org/2000/svg">
<path d="M4.10915 1.73242C3.98805 1.38477 3.49586 1.38477 3.37086 1.73242L1.16383 8.56055H6.32008C6.31618 8.56055 4.10915 1.73242 4.10915 1.73242ZM0.0349265 11.998C-0.066636 12.3105 0.0466452 12.6582 0.31227 12.8574L9.99586 20.0449L1.15993 8.56055L0.0349265 11.998ZM6.31618 8.56055L9.99977 20.0449L13.6834 8.56055H6.31618ZM19.9646 11.998L18.8396 8.56055L9.99977 20.0449L19.6834 12.8574C19.9529 12.6582 20.0623 12.3105 19.9646 11.998ZM16.6287 1.73242C16.5076 1.38477 16.0154 1.38477 15.8904 1.73242L13.6795 8.56055H18.8357L16.6287 1.73242Z" fill="#22232D"/>
</svg>
