<svg width="20" height="21" viewBox="0 0 20 21" fill="none" xmlns="http://www.w3.org/2000/svg">
<path d="M17.9441 6.68639C17.9568 6.86404 17.9568 7.04174 17.9568 7.21939C17.9568 12.6381 13.8325 18.8818 6.29441 18.8818C3.97207 18.8818 1.81473 18.2092 0 17.0417C0.329961 17.0798 0.647187 17.0925 0.989844 17.0925C2.90605 17.0925 4.67004 16.4453 6.07867 15.3412C4.27664 15.3031 2.76648 14.1229 2.24617 12.4986C2.5 12.5366 2.75379 12.562 3.02031 12.562C3.38832 12.562 3.75637 12.5112 4.09898 12.4224C2.22082 12.0417 0.812148 10.392 0.812148 8.39959V8.34885C1.35781 8.65342 1.99238 8.84377 2.66492 8.86912C1.56086 8.13307 0.837539 6.87674 0.837539 5.45541C0.837539 4.694 1.04055 3.99604 1.3959 3.38689C3.41367 5.8742 6.44668 7.49854 9.84766 7.67623C9.78422 7.37166 9.74613 7.05443 9.74613 6.73717C9.74613 4.47826 11.5736 2.63818 13.8451 2.63818C15.0253 2.63818 16.0913 3.13311 16.84 3.9326C17.7664 3.75494 18.6547 3.41229 19.4416 2.94275C19.137 3.89455 18.4898 4.69404 17.6395 5.20162C18.4644 5.11283 19.2639 4.88436 19.9999 4.56713C19.4416 5.37928 18.7436 6.1026 17.9441 6.68639Z" fill="#22232D"/>
</svg>
