<svg width="20" height="21" viewBox="0 0 20 21" fill="none" xmlns="http://www.w3.org/2000/svg">
<path d="M10 1.07227C4.64844 1.07227 0.3125 5.4082 0.3125 10.7598C0.3125 16.1113 4.64844 20.4473 10 20.4473C15.3516 20.4473 19.6875 16.1113 19.6875 10.7598C19.6875 5.4082 15.3516 1.07227 10 1.07227ZM14.7578 7.70898L13.168 15.2012C13.0508 15.7324 12.7344 15.8613 12.293 15.6113L9.87109 13.8262L8.70313 14.9512C8.57422 15.0801 8.46484 15.1895 8.21484 15.1895L8.38672 12.7246L12.875 8.66992C13.0703 8.49805 12.832 8.40039 12.5742 8.57227L7.02734 12.0645L4.63672 11.3184C4.11719 11.1543 4.10547 10.7988 4.74609 10.5488L14.0859 6.94727C14.5195 6.79102 14.8984 7.05273 14.7578 7.70898Z" fill="#22232D"/>
</svg>
